<?xml version="1.0" standalone="no"?>
<!DOCTYPE svg PUBLIC "-//W3C//DTD SVG 20010904//EN"
 "http://www.w3.org/TR/2001/REC-SVG-20010904/DTD/svg10.dtd">
<svg version="1.0" xmlns="http://www.w3.org/2000/svg"
 width="512.000000pt" height="512.000000pt" viewBox="0 0 512.000000 512.000000"
 preserveAspectRatio="xMidYMid meet">
<metadata>
Created by potrace 1.14, written by Peter Selinger 2001-2017
</metadata>
<g transform="translate(0.000000,512.000000) scale(0.100000,-0.100000)"
fill="#000000" stroke="none">
<path d="M2409 4625 c-78 -16 -162 -48 -319 -123 -63 -30 -194 -92 -290 -137
-96 -46 -224 -106 -285 -135 -60 -29 -153 -73 -205 -97 -52 -25 -142 -68 -200
-95 -123 -59 -247 -117 -345 -163 -38 -18 -141 -67 -229 -109 -87 -42 -160
-76 -161 -76 -2 0 -87 -40 -189 -90 l-186 -89 0 -313 0 -313 43 -22 c56 -29
318 -153 321 -153 2 0 82 -38 177 -83 96 -46 191 -92 211 -101 l37 -18 4 -646
c1 -356 6 -660 10 -675 9 -32 46 -114 62 -136 90 -124 431 -314 755 -421 72
-23 305 -85 360 -94 96 -17 223 -36 290 -43 149 -14 649 -6 680 12 3 1 32 6
65 10 308 34 750 192 1050 375 146 89 233 196 251 307 3 21 8 45 9 53 2 8 4
294 4 636 l1 621 201 96 c110 54 205 97 210 97 5 0 9 -75 9 -178 l0 -179 -25
-13 c-45 -24 -77 -86 -77 -149 0 -31 -8 -84 -18 -118 -11 -33 -24 -87 -29
-120 -6 -32 -13 -69 -16 -83 -3 -14 -8 -59 -12 -100 -19 -208 1 -264 108 -318
95 -48 158 -52 253 -18 78 29 117 62 141 120 29 68 -1 356 -54 526 -11 36 -18
78 -15 93 8 49 -15 109 -60 152 l-42 40 0 212 1 213 105 50 105 50 3 315 2
316 -142 68 c-79 38 -177 84 -218 104 -41 19 -172 81 -290 137 -229 109 -342
162 -350 165 -3 1 -59 28 -125 59 -66 32 -156 75 -200 96 -131 61 -271 128
-424 201 -79 38 -144 69 -146 69 -1 0 -74 34 -161 76 -185 89 -230 107 -316
130 -80 21 -253 25 -339 9z"/>
</g>
</svg>
